<?xml version="1.0" standalone="no"?>
<!DOCTYPE svg PUBLIC "-//W3C//DTD SVG 20010904//EN"
 "http://www.w3.org/TR/2001/REC-SVG-20010904/DTD/svg10.dtd">
<svg version="1.0" xmlns="http://www.w3.org/2000/svg"
 width="1000.000000pt" height="1000.000000pt" viewBox="0 0 1000.000000 1000.000000"
 preserveAspectRatio="xMidYMid meet">
<metadata>
Created by potrace 1.11, written by Peter Selinger 2001-2013
</metadata>
<g transform="translate(0.000000,1000.000000) scale(0.100000,-0.100000)"
fill="#000000" stroke="none">
<path d="M4148 8915 c-38 -6 -68 -9 -68 -7 0 3 -7 -1 -15 -8 -8 -7 -15 -10
-15 -6 0 7 -191 -61 -199 -71 -3 -5 -18 -14 -34 -22 -35 -19 -114 -96 -131
-130 -38 -72 -38 -76 -38 -1718 l0 -1603 -62 92 c-34 51 -75 109 -91 128 -45
53 -200 205 -242 237 -21 15 -40 30 -43 34 -15 17 -142 96 -223 138 -92 48
-226 99 -282 108 -16 3 -32 8 -35 11 -3 4 -14 8 -25 8 -11 1 -36 5 -55 8 -136
24 -441 25 -540 1 -14 -3 -41 -8 -60 -11 -47 -8 -65 -12 -65 -14 0 -1 -9 -3
-20 -4 -25 -4 -200 -62 -240 -81 -16 -7 -34 -14 -40 -15 -5 -1 -18 -9 -27 -17
-10 -9 -18 -13 -18 -9 0 4 -13 -2 -29 -13 -16 -12 -32 -21 -35 -21 -11 0 -121
-73 -198 -132 -81 -61 -229 -202 -294 -279 -92 -108 -174 -216 -174 -228 0 -5
-3 -11 -7 -13 -13 -5 -109 -169 -150 -258 -59 -123 -121 -295 -138 -380 -2 -8
-4 -15 -5 -15 -1 0 -4 -11 -6 -25 -3 -14 -9 -41 -13 -60 -5 -19 -9 -42 -10
-50 0 -8 -5 -37 -10 -63 -12 -56 -24 -180 -25 -254 -1 -29 -3 -53 -6 -53 -3 0
-5 -18 -5 -40 0 -22 3 -40 7 -40 4 0 3 -13 -2 -30 -5 -19 -5 -30 1 -30 6 0 8
-4 5 -8 -8 -13 -11 -150 -3 -158 3 -4 2 -14 -2 -23 -11 -21 -11 -24 -1 -61 5
-18 5 -30 0 -30 -6 0 -6 -10 0 -25 5 -14 6 -25 2 -25 -8 0 -7 -233 1 -247 3
-5 2 -15 -3 -23 -4 -7 -4 -24 1 -37 5 -12 5 -23 1 -23 -9 0 -7 -53 2 -69 4 -5
2 -12 -4 -16 -6 -4 -7 -12 -1 -24 6 -10 6 -23 1 -31 -5 -8 -6 -18 -3 -23 3 -5
7 -46 9 -91 4 -109 13 -189 35 -301 5 -27 11 -60 14 -73 2 -13 7 -32 10 -42 3
-10 8 -27 10 -37 7 -34 59 -198 65 -203 3 -3 11 -23 18 -45 14 -41 129 -282
144 -300 4 -5 35 -52 68 -103 33 -52 65 -99 70 -105 6 -7 25 -30 42 -53 82
-101 108 -131 186 -210 46 -46 85 -84 87 -84 2 0 21 -16 42 -35 47 -43 174
-135 228 -165 22 -12 52 -31 67 -41 14 -11 29 -19 32 -19 3 0 33 -13 68 -30
62 -29 233 -89 273 -95 11 -2 47 -8 80 -14 185 -31 466 -27 562 10 15 6 23 5
23 -2 0 -8 4 -8 13 -1 6 5 28 13 47 17 44 9 158 46 230 75 98 38 270 129 270
142 0 4 5 8 10 8 9 0 87 47 100 60 3 3 30 24 61 48 99 75 200 180 270 283 24
35 46 66 50 69 3 3 13 22 23 43 10 21 19 37 21 35 2 -2 5 -76 5 -164 2 -185
14 -235 75 -309 79 -97 223 -187 355 -221 63 -16 256 -23 325 -11 70 12 142
30 167 43 15 8 30 14 33 14 13 -1 106 52 149 84 66 51 102 93 133 156 l28 55
-1 3525 0 3525 -24 50 c-58 119 -227 232 -390 259 -19 3 -46 8 -60 11 -48 11
-285 11 -352 0z m-1283 -3959 c41 -7 82 -15 100 -19 6 -2 15 -5 20 -8 6 -4 23
-9 38 -13 47 -11 184 -82 250 -129 64 -45 136 -113 196 -184 37 -43 117 -201
137 -268 22 -74 23 -79 31 -140 10 -68 9 -1214 -1 -1245 -4 -14 -8 -29 -9 -35
-5 -20 -52 -110 -62 -117 -7 -5 -7 -8 0 -8 6 0 5 -4 -1 -8 -7 -4 -32 -34 -56
-67 -50 -67 -178 -195 -249 -249 -123 -93 -269 -159 -404 -182 -85 -15 -229
-11 -320 9 -78 17 -187 61 -274 111 -47 28 -177 148 -241 223 -56 66 -146 226
-165 296 -2 4 -3 8 -5 10 -2 3 -10 38 -15 64 -2 12 -5 26 -8 30 -14 23 -19
179 -19 608 1 437 3 509 17 575 20 93 17 82 43 150 3 8 6 17 6 20 5 21 63 127
73 133 7 4 13 14 13 21 0 7 8 21 18 32 9 10 28 33 40 49 83 107 199 203 318
263 56 28 127 55 149 58 6 0 17 4 25 7 8 3 35 8 59 11 24 3 46 7 47 9 6 6 209
0 249 -7z"/>
<path d="M7748 6155 c-1 -1 -79 -5 -173 -8 -93 -4 -179 -8 -190 -10 -11 -3
-47 -8 -80 -11 -33 -4 -85 -12 -115 -18 -30 -6 -64 -12 -75 -14 -11 -1 -21 -3
-22 -4 -3 -3 -7 -4 -58 -14 -59 -12 -231 -72 -303 -106 -35 -17 -67 -30 -71
-30 -5 0 -14 -7 -21 -15 -6 -8 -15 -13 -18 -12 -25 7 -322 -222 -322 -248 0
-2 -12 -17 -27 -33 -46 -48 -73 -82 -73 -91 0 -5 -4 -11 -8 -13 -15 -5 -90
-121 -133 -204 -71 -135 -134 -319 -153 -444 -3 -19 -8 -57 -12 -85 -16 -104
-9 -391 11 -484 3 -11 7 -31 10 -43 12 -57 50 -160 83 -228 68 -140 145 -237
306 -385 78 -73 309 -213 381 -231 6 -1 62 -20 125 -42 63 -21 117 -39 120
-40 3 0 12 -3 20 -6 30 -10 225 -70 235 -72 6 -1 30 -7 55 -14 25 -7 50 -13
55 -15 6 -1 17 -5 25 -8 15 -6 151 -45 180 -51 8 -2 42 -12 75 -22 33 -10 65
-19 70 -20 12 -3 130 -43 160 -54 68 -27 287 -130 295 -139 3 -3 24 -19 47
-34 142 -97 212 -259 180 -417 -5 -25 -9 -51 -10 -57 0 -7 -4 -13 -8 -13 -4 0
-10 -11 -13 -25 -11 -44 -96 -121 -180 -164 -43 -23 -82 -38 -86 -36 -5 3 -11
1 -14 -4 -5 -8 -38 -16 -111 -27 -11 -2 -31 -5 -45 -8 -50 -11 -352 -24 -380
-17 -3 1 -45 4 -95 6 -49 3 -101 7 -115 10 -14 3 -37 7 -52 10 -16 3 -40 7
-55 10 -52 9 -87 18 -113 28 -8 3 -51 17 -95 30 -164 50 -318 120 -576 261
-36 19 -74 37 -85 39 -10 1 -25 6 -32 11 -7 4 -38 9 -68 11 -30 1 -57 5 -61 9
-3 3 -11 2 -17 -4 -7 -5 -27 -12 -45 -15 -19 -3 -46 -15 -62 -25 -15 -11 -30
-20 -33 -20 -10 0 -80 -73 -106 -110 -131 -186 -178 -355 -145 -520 18 -90
118 -235 219 -316 27 -21 54 -43 60 -49 78 -69 301 -188 476 -253 58 -22 158
-55 175 -58 6 -1 30 -7 55 -14 50 -14 63 -17 135 -30 28 -6 61 -13 75 -16 14
-3 39 -7 55 -10 17 -2 44 -6 60 -8 151 -20 191 -24 365 -32 63 -3 120 -5 125
-5 39 -1 320 11 360 16 143 16 146 16 215 30 14 2 45 7 69 10 23 4 53 10 65
14 11 5 24 9 29 10 4 0 8 1 10 2 1 1 13 2 27 4 57 7 337 109 351 128 3 5 8 8
10 8 10 -3 69 24 69 31 0 4 5 8 11 8 14 0 191 116 238 156 29 25 121 117 184
185 9 10 17 23 17 28 0 5 3 11 8 13 35 15 180 282 208 383 26 96 46 176 49
200 3 17 7 41 11 55 11 43 13 402 3 465 -5 33 -11 71 -13 85 -2 14 -7 32 -10
40 -3 8 -7 29 -10 45 -7 50 -56 182 -94 258 -87 175 -204 316 -355 433 -85 65
-342 195 -522 264 -33 12 -69 27 -80 31 -102 45 -419 141 -688 210 -235 60
-211 53 -277 78 -298 115 -417 263 -365 455 27 99 146 226 268 286 45 22 93
42 107 44 14 2 32 7 40 10 44 15 173 29 275 30 91 0 263 -11 274 -18 3 -2 29
-7 56 -10 28 -3 66 -10 85 -16 19 -6 51 -13 70 -16 19 -3 136 -40 260 -81 124
-41 232 -77 240 -78 8 -2 15 -4 15 -5 0 -2 15 -5 93 -19 64 -12 131 -8 167 11
11 6 20 10 20 9 0 -4 39 12 50 20 87 66 161 160 212 269 65 140 73 161 78 221
1 14 4 30 7 35 7 14 3 115 -7 149 -10 35 -63 120 -98 155 -76 77 -177 139
-352 215 -50 22 -193 75 -212 79 -10 1 -25 6 -33 9 -18 8 -124 36 -160 43 -14
3 -34 8 -45 11 -11 3 -29 7 -41 8 -11 2 -45 8 -75 14 -56 12 -90 17 -174 26
-27 4 -66 8 -85 11 -19 2 -96 6 -170 10 -74 3 -140 7 -147 9 -6 2 -13 2 -15 0z"/>
</g>
</svg>
