<?xml version="1.0" encoding="iso-8859-1"?>
<!-- Generator: Adobe Illustrator 19.0.0, SVG Export Plug-In . SVG Version: 6.00 Build 0)  -->
<svg version="1.1" id="Layer_1" xmlns="http://www.w3.org/2000/svg" xmlns:xlink="http://www.w3.org/1999/xlink" x="0px" y="0px"
	 viewBox="0 0 511.986 511.986" style="enable-background:new 0 0 511.986 511.986;" xml:space="preserve">
<g>
	<path style="fill:#F0C419;" d="M90.167,398.871l327.764,111.225c19.521,6.451,40.578-4.152,47.03-23.673l0,0
		c2.392-7.215-4.44-14.262-11.627-11.804c-7.419,2.541-15.704,2.774-23.729,0.121L101.85,363.515
		c-4.887-1.611-10.147,1.033-11.757,5.921l-5.846,17.678C82.636,391.992,85.289,397.261,90.167,398.871"/>
	<g>
		<path style="fill:#BE3A2B;" d="M363.048,46.545C363.048,20.843,342.205,0,316.503,0s-46.545,20.843-46.545,46.545
			s20.843,46.545,46.545,46.545S363.048,72.248,363.048,46.545"/>
		<path style="fill:#BE3A2B;" d="M306.505,279.155l-44.274-14.625l14.587-44.2l78.615,25.972c8.806,2.904,18.963-0.419,23.245-8.639
			c5.464-10.482,0.121-22.863-10.612-26.41l-61.878-20.443l10.221-30.934c5.641-17.082-3.631-35.514-20.713-41.155l-17.687-5.846
			c-17.082-5.641-35.505,3.631-41.156,20.722l-31.902,96.563c-12.214,36.985,7.857,76.865,44.833,89.079l12.595,4.161
			c9.765,3.23,15.071,13.759,11.841,23.524l-15.779,45.158c-4.049,12.251,2.607,25.46,14.857,29.51l0,0
			c12.26,4.049,25.479-2.616,29.519-14.885l27.359-80.607C336.592,306.599,325.998,285.597,306.505,279.155"/>
	</g>
	<g>
		<path style="fill:#E4E5E6;" d="M347.539,253.006c-0.968,0-1.955-0.149-2.914-0.475L52.934,156.164
			c-4.887-1.61-7.54-6.879-5.921-11.757c1.61-4.878,6.87-7.587,11.748-5.921l291.691,96.377c4.887,1.61,7.54,6.87,5.921,11.748
			C355.089,250.53,351.449,253.006,347.539,253.006"/>
		<path style="fill:#E4E5E6;" d="M76.521,183.07c-0.968,0-1.955-0.149-2.914-0.475c-4.887-1.61-7.54-6.87-5.921-11.748
			l11.683-35.356c1.61-4.887,6.879-7.596,11.748-5.921c4.887,1.61,7.54,6.87,5.921,11.757l-11.683,35.347
			C84.071,180.594,80.431,183.07,76.521,183.07"/>
	</g>
</g>
<g>
</g>
<g>
</g>
<g>
</g>
<g>
</g>
<g>
</g>
<g>
</g>
<g>
</g>
<g>
</g>
<g>
</g>
<g>
</g>
<g>
</g>
<g>
</g>
<g>
</g>
<g>
</g>
<g>
</g>
</svg>
