<?xml version="1.0" encoding="utf-8"?>
<!-- Generator: Adobe Illustrator 19.0.0, SVG Export Plug-In . SVG Version: 6.00 Build 0)  -->
<svg version="1.1" id="Layer_1" xmlns="http://www.w3.org/2000/svg" xmlns:xlink="http://www.w3.org/1999/xlink" x="0px" y="0px"
	 viewBox="0 0 125 100" style="enable-background:new 0 0 125 100;" xml:space="preserve">
<g id="XMLID_2_">
	<path id="XMLID_3_" d="M6,72.5V61.9c0-7.1,2.3-13.3,6.8-18.4c4.5-5.2,9.9-7.7,16.2-7.7c3.8,0,7.1,1,10,2.9c2.9,1.9,5.1,4.3,6.6,7V6
		c0-1.5,0.8-2.8,2.4-3.7c1.6-0.9,3.6-1.4,6-1.4c2.4,0,4.4,0.5,5.9,1.4c1.5,0.9,2.3,2.2,2.3,3.7v86.4c0,1.4-0.8,2.6-2.4,3.7
		c-1.6,1.1-3.5,1.6-5.9,1.6c-2,0-3.7-0.6-5.2-1.7c-1.5-1.1-2.3-2.3-2.3-3.6v-3.8c-1.4,2.8-3.7,5.2-7,7.2c-3.3,2-6.9,3.1-10.9,3.1
		c-5.9,0-11.2-2.7-15.7-8C8.3,85.6,6,79.4,6,72.5z M22.6,72.4c0,3,1.1,5.7,3.4,8.1c2.2,2.4,4.9,3.6,7.9,3.6c3,0,5.7-1.2,8.1-3.5
		c2.4-2.3,3.6-4.3,3.6-6V61.9c0-3.4-1.2-6.2-3.5-8.3c-2.4-2.1-5.1-3.2-8.1-3.2c-3.1,0-5.8,1.2-8,3.5c-2.2,2.3-3.4,5-3.4,8V72.4z"/>
	<path id="XMLID_6_" d="M71.4,87.8c0-1.5,0.6-3.2,1.7-4.8c1.1-1.7,2.4-2.5,3.9-2.5c1,0,2.2,0.4,3.6,1.3c1.4,0.9,3.3,1.7,5.7,2.6
		c2.4,0.9,5.1,1.4,8.4,1.4c6.4,0,9.5-1.8,9.5-5.4c0-2-1.1-3.6-3.2-4.8c-2.1-1.2-4.6-2.1-7.6-2.9c-3-0.8-6-1.7-9-2.7
		c-3-1-5.6-2.8-7.7-5.3c-2.1-2.5-3.2-5.6-3.2-9.5c0-5.3,1.8-9.9,5.5-13.8c3.7-3.8,9.5-5.8,17.5-5.8c5.3,0,10.1,0.8,14.3,2.5
		c4.2,1.6,6.3,3.6,6.3,5.9c0,1.5-0.6,3.2-1.7,5.1c-1.2,1.9-2.6,2.9-4.3,2.9c-0.7,0-2.6-0.5-5.6-1.6c-3.1-1.1-5.9-1.6-8.6-1.6
		c-2.9,0-5.2,0.6-6.7,1.8c-1.5,1.2-2.3,2.5-2.3,3.9s0.8,2.6,2.3,3.5c1.5,0.9,3.5,1.6,5.7,2.1c2.3,0.5,4.7,1.2,7.3,2.1s5,1.9,7.3,3.1
		c2.2,1.2,4.1,3,5.6,5.5c1.5,2.5,2.3,5.5,2.3,9c0,6-2.1,10.6-6.3,14.1c-4.2,3.4-10,5.1-17.5,5.1c-6.5,0-12-1.1-16.5-3.4
		C73.7,93.3,71.4,90.7,71.4,87.8z"/>
</g>
<g id="XMLID_1_">
</g>
<g id="XMLID_8_">
</g>
<g id="XMLID_9_">
</g>
<g id="XMLID_10_">
</g>
<g id="XMLID_11_">
</g>
<g id="XMLID_12_">
</g>
<g id="XMLID_13_">
</g>
<g id="XMLID_14_">
</g>
<g id="XMLID_15_">
</g>
<g id="XMLID_16_">
</g>
<g id="XMLID_17_">
</g>
<g id="XMLID_18_">
</g>
<g id="XMLID_19_">
</g>
<g id="XMLID_20_">
</g>
<g id="XMLID_21_">
</g>
</svg>
