<?xml version="1.0" encoding="utf-8"?>
<!-- Generator: Adobe Illustrator 19.0.0, SVG Export Plug-In . SVG Version: 6.00 Build 0)  -->
<svg version="1.1" xmlns="http://www.w3.org/2000/svg" xmlns:xlink="http://www.w3.org/1999/xlink" x="0px" y="0px"
	 viewBox="0 0 125 100" style="enable-background:new 0 0 125 100;" xml:space="preserve">
<style type="text/css">
	.st0{display:none;}
	.st1{display:inline;}
</style>
<g id="Layer_1">
	<path id="XMLID_3_" d="M57.3,87.6V77.2c-2.5,3.9-5.3,6.8-8.6,8.7s-6.9,2.9-10.9,2.9c-6.3,0-11.3-2.5-15-7.4c-3.7-5-5.6-11.6-5.6-20
		c0-9.3,2.1-16.7,6.4-22.3s9.9-8.4,17-8.4c3.2,0,6.2,0.6,9,1.9s5.3,3.2,7.6,5.7V20.2c0-4.7-0.4-7.4-1.1-8.3
		c-0.7-0.9-3.2-1.4-7.4-1.7l-1-0.1V7h19.5v67.4c0,4.6,0.4,7.4,1.1,8.3c0.7,0.9,3.2,1.5,7.4,1.7l1,0.1v3.2H57.3z M57.3,42.4
		c-2.6-2-5.2-3.5-7.8-4.4c-2.6-1-5.1-1.5-7.6-1.5c-4.7,0-8.2,1.9-10.5,5.6c-2.3,3.7-3.5,9.3-3.5,16.7c0,7.9,1.1,13.8,3.4,17.7
		s5.7,5.9,10.2,5.9c3.1,0,5.9-0.7,8.5-2.2c2.6-1.4,5-3.6,7.2-6.5V42.4z"/>
	<path id="XMLID_6_" d="M60.8,83.7V69.6h5.7l0.1,1c0.4,5.1,0.8,8,1,8.6c0.2,0.7,1.1,1.5,2.7,2.5c3.1,2,6.5,3,10.3,3
		c3.1,0,5.6-0.9,7.5-2.8c2-1.9,2.9-4.3,2.9-7.2c0-2.6-0.6-4.7-1.9-6.2c-1.3-1.5-3.7-2.9-7-4.2l-5.2-2c-5.5-2.1-9.6-4.6-12.1-7.3
		c-2.5-2.7-3.7-5.9-3.7-9.7c0-4.5,1.8-8.2,5.4-11.1c3.6-2.9,8.2-4.4,13.7-4.4c5.4,0,11,1.1,16.8,3.2v13.2h-5.7v-0.9
		c-0.2-3.3-0.5-5.6-0.8-6.9c-0.3-1.3-0.9-2.2-1.6-2.8c-2.2-1.7-4.9-2.6-8-2.6c-3,0-5.4,1-7.4,2.9s-2.9,4.3-2.9,7.2
		c0,2.4,0.8,4.3,2.4,5.7c1.6,1.5,4.7,3.2,9.5,5.1l4.7,1.9c5.1,2.1,8.7,4.3,10.8,6.5c2,2.3,3,5.2,3,8.8c0,4.9-2,9-5.9,12.1
		c-3.9,3.1-9,4.7-15.3,4.7C73,87.9,66.7,86.5,60.8,83.7z"/>
</g>
<g id="Layer_2" class="st0">
	<g id="XMLID_1_" class="st1">
		<path id="XMLID_8_" d="M55.4,71.6c-0.5,1-1.2,2.1-2,3.2C52.6,76,51.5,77,50.2,78c-1.3,1-2.8,1.8-4.5,2.4c-1.7,0.6-3.8,0.9-6.1,0.9
			c-2.4,0-4.7-0.4-7-1.2c-2.3-0.8-4.3-2.1-6.1-4c-1.8-1.8-3.2-4.2-4.3-7.1c-1.1-2.9-1.6-6.4-1.6-10.4c0-4,0.6-7.5,1.8-10.4
			c1.2-2.9,2.7-5.4,4.6-7.3c1.9-2,4.1-3.4,6.5-4.4c2.4-1,4.8-1.5,7.3-1.5c6.9,0,11.7,3.1,14.4,9.4h0.2v-9.2c0-2.4,0-4.8,0-7.2
			c0-2.4-0.1-4.7-0.1-6.9c0-2.2-0.1-4.2-0.1-6.2c0-1.9-0.1-3.6-0.1-5.1c0.7,0.1,1.5,0.2,2.2,0.3c0.7,0.1,1.4,0.1,2.1,0.1
			c0.7,0,1.4,0,2-0.1c0.7-0.1,1.4-0.2,2.2-0.3c-0.2,2-0.3,4.9-0.5,8.7c-0.1,3.8-0.2,7.9-0.3,12.5c-0.1,4.6-0.2,9.2-0.2,14
			c-0.1,4.8-0.1,9.2-0.1,13.2c0,4.3,0,8.2,0.1,11.6c0.1,3.4,0.1,7,0.2,10.6c-1.2-0.1-2.5-0.2-3.7-0.2c-1.1,0-2.3,0.1-3.6,0.2
			l0.3-8.9H55.4z M28.8,59.2c0,3.7,0.4,6.8,1.2,9.3c0.8,2.4,1.8,4.4,3,5.8c1.2,1.5,2.6,2.5,4.2,3c1.6,0.6,3.1,0.8,4.6,0.8
			c2.4,0,4.5-0.6,6.3-1.8c1.7-1.2,3.2-2.8,4.4-4.8c1.2-2,2-4.2,2.5-6.7c0.5-2.5,0.8-5,0.8-7.5c0-6-1.2-10.6-3.5-13.7
			C49.9,40.6,46.5,39,42,39c-2.2,0-4.2,0.5-5.8,1.5c-1.7,1-3,2.5-4.1,4.3c-1.1,1.8-1.9,4-2.4,6.5C29.1,53.8,28.8,56.4,28.8,59.2z"/>
		<path id="XMLID_11_" d="M76.8,73.8c0.7,0.7,1.4,1.5,2.3,2.1c0.9,0.7,1.9,1.2,3.1,1.6c1.2,0.4,2.4,0.7,3.7,0.7
			c1.2,0,2.3-0.2,3.4-0.6c1.1-0.4,2.1-0.9,2.9-1.6c0.8-0.7,1.5-1.6,2-2.6c0.5-1.1,0.7-2.3,0.7-3.7c0-1.9-0.5-3.4-1.6-4.4
			c-1.1-1-2.4-1.9-4.1-2.5c-1.6-0.7-3.4-1.2-5.3-1.7c-1.9-0.5-3.7-1.2-5.3-2.1c-1.6-0.9-3-2.1-4.1-3.6c-1.1-1.5-1.6-3.6-1.6-6.2
			c0-2.1,0.3-3.9,1-5.7c0.7-1.7,1.7-3.2,3-4.4c1.3-1.2,2.9-2.2,4.9-2.9c1.9-0.7,4.1-1.1,6.6-1.1c2.3,0,4.3,0.3,5.8,0.9
			c1.6,0.6,3.1,1.2,4.5,1.7c-0.5,0.9-1,2.1-1.4,3.5c-0.4,1.4-0.7,2.4-0.8,3.2h-1.1c-0.5-1.5-1.5-2.8-2.9-4c-1.4-1.2-3.2-1.8-5.3-1.8
			c-0.9,0-1.9,0.2-2.8,0.5c-0.9,0.3-1.8,0.8-2.5,1.4c-0.7,0.6-1.4,1.4-1.9,2.4c-0.5,1-0.7,2.2-0.7,3.6c0,2,0.5,3.5,1.6,4.6
			c1.1,1.1,2.4,2,4.1,2.6c1.6,0.6,3.4,1.2,5.3,1.6c1.9,0.5,3.7,1.1,5.3,2c1.6,0.8,3,2,4.1,3.5c1.1,1.5,1.6,3.6,1.6,6.2
			c0,1.8-0.4,3.6-1.2,5.3c-0.8,1.7-1.9,3.3-3.4,4.7c-1.5,1.4-3.2,2.5-5.3,3.3s-4.4,1.2-7,1.2c-2.9,0-5.3-0.3-7.2-0.8
			c-1.9-0.6-3.6-1.2-4.9-2c0.4-0.8,0.8-1.9,1.2-3.3c0.4-1.4,0.6-2.6,0.6-3.5h1.1C75.7,72.4,76.2,73.1,76.8,73.8z"/>
	</g>
</g>
</svg>
